<svg width="154" height="107" viewBox="0 0 154 107" fill="none" xmlns="http://www.w3.org/2000/svg">
<path opacity="0.4" d="M146.251 49.2753C146.669 49.6794 147.331 49.6794 147.749 49.2753C148.046 48.9884 148.48 48.8961 148.868 49.0375C149.414 49.2367 150.02 48.9671 150.237 48.428C150.391 48.0453 150.75 47.7843 151.162 47.7558C151.742 47.7157 152.186 47.223 152.165 46.6422C152.15 46.2298 152.372 45.8452 152.737 45.6518C153.25 45.3793 153.455 44.7488 153.2 44.2266C153.019 43.8558 153.065 43.4142 153.319 43.0892C153.677 42.6315 153.608 41.9722 153.163 41.5989C152.846 41.3339 152.709 40.9115 152.809 40.5112C152.95 39.9474 152.619 39.3732 152.06 39.2135C151.663 39.1 151.366 38.77 151.295 38.3636C151.194 37.7911 150.658 37.4014 150.082 37.4828C149.674 37.5405 149.268 37.3599 149.038 37.0176C148.713 36.5355 148.064 36.3977 147.572 36.7061C147.222 36.925 146.778 36.925 146.428 36.7061C145.936 36.3977 145.287 36.5355 144.962 37.0176C144.732 37.3599 144.326 37.5405 143.918 37.4828C143.342 37.4014 142.806 37.7911 142.705 38.3636C142.634 38.77 142.337 39.1 141.94 39.2135C141.381 39.3732 141.05 39.9474 141.191 40.5112C141.291 40.9115 141.154 41.3339 140.837 41.5989C140.392 41.9722 140.323 42.6315 140.681 43.0892C140.935 43.4142 140.981 43.8558 140.8 44.2266C140.545 44.7488 140.75 45.3793 141.263 45.6518C141.628 45.8452 141.85 46.2298 141.835 46.6422C141.814 47.223 142.258 47.7157 142.838 47.7558C143.25 47.7843 143.609 48.0453 143.763 48.428C143.98 48.9671 144.586 49.2367 145.132 49.0375C145.52 48.8961 145.954 48.9884 146.251 49.2753Z" fill="#1B5E37"/>
<path opacity="0.4" d="M6.25074 24.2753C6.66852 24.6794 7.33148 24.6794 7.74926 24.2753C8.04587 23.9884 8.48026 23.8961 8.86791 24.0375C9.41393 24.2367 10.0196 23.9671 10.2369 23.428C10.3912 23.0453 10.7504 22.7843 11.1621 22.7558C11.742 22.7157 12.1856 22.223 12.1648 21.6422C12.1501 21.2298 12.3721 20.8452 12.7366 20.6518C13.25 20.3793 13.4549 19.7488 13.1997 19.2266C13.0185 18.8558 13.0649 18.4142 13.3192 18.0892C13.6774 17.6315 13.6081 16.9722 13.1626 16.5989C12.8463 16.3339 12.709 15.9115 12.8092 15.5112C12.9503 14.9474 12.6188 14.3732 12.0599 14.2135C11.6632 14.1 11.366 13.77 11.2947 13.3636C11.1942 12.7911 10.6579 12.4014 10.0824 12.4828C9.67377 12.5405 9.26807 12.3599 9.03759 12.0176C8.71296 11.5355 8.06449 11.3977 7.57183 11.7061C7.22205 11.925 6.77795 11.925 6.42817 11.7061C5.93551 11.3977 5.28704 11.5355 4.96241 12.0176C4.73193 12.3599 4.32623 12.5405 3.91763 12.4828C3.34212 12.4014 2.80578 12.7911 2.70531 13.3636C2.63398 13.77 2.33682 14.1 1.94006 14.2135C1.38122 14.3732 1.04974 14.9474 1.1908 15.5112C1.29095 15.9115 1.15372 16.3339 0.837395 16.5989C0.391852 16.9722 0.322554 17.6315 0.680758 18.0892C0.935073 18.4142 0.981493 18.8558 0.800302 19.2266C0.545093 19.7488 0.749957 20.3793 1.26337 20.6518C1.62788 20.8452 1.84992 21.2298 1.83519 21.6422C1.81445 22.223 2.25805 22.7157 2.83789 22.7558C3.24957 22.7843 3.60885 23.0453 3.76313 23.428C3.98043 23.9671 4.58607 24.2367 5.13208 24.0375C5.51974 23.8961 5.95413 23.9884 6.25074 24.2753Z" fill="#1B5E37"/>
<path d="M82.6298 20.7106C85.3454 18.084 89.6546 18.084 92.3702 20.7106C94.2981 22.5753 97.1217 23.1755 99.6414 22.2561C103.191 20.9611 107.127 22.7139 108.54 26.2179C109.542 28.7056 111.878 30.4023 114.554 30.5873C118.323 30.8478 121.206 34.0502 121.071 37.8258C120.976 40.5063 122.419 43.0062 124.788 44.2636C128.125 46.0346 129.457 50.1329 127.798 53.5272C126.62 55.937 126.922 58.8078 128.575 60.9202C130.903 63.8954 130.453 68.181 127.557 70.6071C125.501 72.3296 124.609 75.075 125.26 77.677C126.177 81.3421 124.022 85.0739 120.39 86.1124C117.811 86.8497 115.879 88.9949 115.415 91.6367C114.762 95.3579 111.276 97.8907 107.535 97.362C104.88 96.9866 102.242 98.1607 100.744 100.386C98.6342 103.519 94.4192 104.415 91.2169 102.411C88.9433 100.987 86.0567 100.987 83.7831 102.411C80.5808 104.415 76.3658 103.519 74.2557 100.386C72.7575 98.1607 70.1205 96.9866 67.4646 97.362C63.7238 97.8907 60.2376 95.3579 59.5845 91.6367C59.1208 88.9949 57.1893 86.8497 54.6104 86.1124C50.9779 85.0739 48.8233 81.3421 49.7402 77.677C50.3912 75.075 49.4992 72.3296 47.4431 70.6071C44.547 68.181 44.0966 63.8954 46.4249 60.9202C48.078 58.8078 48.3797 55.937 47.202 53.5272C45.5431 50.1329 46.8747 46.0346 50.2119 44.2636C52.5812 43.0062 54.0245 40.5063 53.9288 37.8258C53.7939 34.0502 56.6773 30.8478 60.4463 30.5873C63.1222 30.4023 65.4575 28.7056 66.4603 26.2179C67.8728 22.7138 71.8094 20.9611 75.3586 22.2561C77.8783 23.1755 80.7019 22.5753 82.6298 20.7106Z" fill="#1B5E37"/>
<path d="M68.1608 60.9481L79.8062 74.7937C80.1617 75.2164 80.7926 75.2709 81.2152 74.9154L110.213 50.5257" stroke="white" stroke-width="4"/>
<path opacity="0.4" d="M93.1254 6.63765C93.3343 6.83969 93.6657 6.83969 93.8746 6.63765C94.0229 6.4942 94.2401 6.44804 94.434 6.51876C94.707 6.61837 95.0098 6.48355 95.1184 6.21401C95.1956 6.02265 95.3752 5.89213 95.5811 5.8779C95.871 5.85786 96.0928 5.61152 96.0824 5.32109C96.075 5.1149 96.1861 4.9226 96.3683 4.82588C96.625 4.68965 96.7275 4.3744 96.5998 4.11329C96.5093 3.92792 96.5325 3.70709 96.6596 3.5446C96.8387 3.31574 96.8041 2.98608 96.5813 2.79945C96.4231 2.66695 96.3545 2.45577 96.4046 2.25561C96.4751 1.97369 96.3094 1.68662 96.03 1.60674C95.8316 1.55002 95.683 1.38501 95.6473 1.18179C95.5971 0.89555 95.3289 0.700713 95.0412 0.741387C94.8369 0.770265 94.634 0.67995 94.5188 0.508805C94.3565 0.267746 94.0322 0.198828 93.7859 0.353026C93.611 0.462502 93.389 0.462502 93.2141 0.353026C92.9678 0.198828 92.6435 0.267746 92.4812 0.508805C92.366 0.67995 92.1631 0.770265 91.9588 0.741387C91.6711 0.700713 91.4029 0.89555 91.3527 1.18179C91.317 1.38501 91.1684 1.55002 90.97 1.60674C90.6906 1.68662 90.5249 1.97369 90.5954 2.25561C90.6455 2.45577 90.5769 2.66695 90.4187 2.79945C90.1959 2.98608 90.1613 3.31574 90.3404 3.5446C90.4675 3.70709 90.4907 3.92792 90.4002 4.11329C90.2725 4.3744 90.375 4.68965 90.6317 4.82588C90.8139 4.9226 90.925 5.1149 90.9176 5.32109C90.9072 5.61152 91.129 5.85786 91.4189 5.8779C91.6248 5.89213 91.8044 6.02265 91.8816 6.21401C91.9902 6.48355 92.293 6.61837 92.566 6.51876C92.7599 6.44804 92.9771 6.4942 93.1254 6.63765Z" fill="#1B5E37"/>
<path opacity="0.4" d="M21.9113 101.431C22.2396 101.748 22.7604 101.748 23.0887 101.431C23.3218 101.205 23.6631 101.133 23.9676 101.244C24.3967 101.4 24.8725 101.188 25.0433 100.765C25.1645 100.464 25.4468 100.259 25.7702 100.237C26.2258 100.205 26.5744 99.8181 26.5581 99.3617C26.5465 99.0377 26.721 98.7355 27.0074 98.5835C27.4107 98.3694 27.5717 97.8741 27.3712 97.4637C27.2288 97.1724 27.2653 96.8254 27.4651 96.5701C27.7466 96.2104 27.6921 95.6924 27.342 95.3991C27.0935 95.1909 26.9857 94.8591 27.0644 94.5445C27.1752 94.1015 26.9148 93.6504 26.4757 93.5249C26.1639 93.4358 25.9304 93.1764 25.8744 92.8571C25.7955 92.4073 25.374 92.1011 24.9219 92.165C24.6008 92.2104 24.2821 92.0685 24.101 91.7996C23.8459 91.4207 23.3364 91.3124 22.9493 91.5548C22.6745 91.7268 22.3255 91.7268 22.0507 91.5548C21.6636 91.3124 21.1541 91.4207 20.899 91.7996C20.7179 92.0685 20.3992 92.2104 20.0781 92.165C19.626 92.1011 19.2045 92.4073 19.1256 92.8571C19.0696 93.1764 18.8361 93.4358 18.5243 93.5249C18.0852 93.6504 17.8248 94.1015 17.9356 94.5445C18.0143 94.8591 17.9065 95.1909 17.658 95.3991C17.3079 95.6924 17.2534 96.2104 17.5349 96.5701C17.7347 96.8254 17.7712 97.1724 17.6288 97.4637C17.4283 97.8741 17.5893 98.3694 17.9926 98.5835C18.279 98.7355 18.4535 99.0377 18.4419 99.3617C18.4256 99.8181 18.7742 100.205 19.2298 100.237C19.5532 100.259 19.8355 100.464 19.9567 100.765C20.1275 101.188 20.6033 101.4 21.0324 101.244C21.3369 101.133 21.6782 101.205 21.9113 101.431Z" fill="#1B5E37"/>
<path opacity="0.4" d="M17.1254 56.6376C17.3343 56.8397 17.6657 56.8397 17.8746 56.6376C18.0229 56.4942 18.2401 56.448 18.434 56.5188C18.707 56.6184 19.0098 56.4836 19.1184 56.214C19.1956 56.0226 19.3752 55.8921 19.5811 55.8779C19.871 55.8579 20.0928 55.6115 20.0824 55.3211C20.075 55.1149 20.1861 54.9226 20.3683 54.8259C20.625 54.6896 20.7275 54.3744 20.5998 54.1133C20.5093 53.9279 20.5325 53.7071 20.6596 53.5446C20.8387 53.3157 20.8041 52.9861 20.5813 52.7995C20.4231 52.667 20.3545 52.4558 20.4046 52.2556C20.4751 51.9737 20.3094 51.6866 20.03 51.6067C19.8316 51.55 19.683 51.385 19.6473 51.1818C19.5971 50.8955 19.3289 50.7007 19.0412 50.7414C18.8369 50.7703 18.634 50.6799 18.5188 50.5088C18.3565 50.2677 18.0322 50.1988 17.7859 50.353C17.611 50.4625 17.389 50.4625 17.2141 50.353C16.9678 50.1988 16.6435 50.2677 16.4812 50.5088C16.366 50.68 16.1631 50.7703 15.9588 50.7414C15.6711 50.7007 15.4029 50.8955 15.3527 51.1818C15.317 51.385 15.1684 51.55 14.97 51.6067C14.6906 51.6866 14.5249 51.9737 14.5954 52.2556C14.6455 52.4558 14.5769 52.667 14.4187 52.7995C14.1959 52.9861 14.1613 53.3157 14.3404 53.5446C14.4675 53.7071 14.4907 53.9279 14.4002 54.1133C14.2725 54.3744 14.375 54.6896 14.6317 54.8259C14.8139 54.9226 14.925 55.1149 14.9176 55.3211C14.9072 55.6115 15.129 55.8579 15.4189 55.8779C15.6248 55.8921 15.8044 56.0226 15.8816 56.214C15.9902 56.4836 16.293 56.6184 16.566 56.5188C16.7599 56.448 16.9771 56.4942 17.1254 56.6376Z" fill="#1B5E37"/>
<path opacity="0.4" d="M127.125 86.6376C127.334 86.8397 127.666 86.8397 127.875 86.6376C128.023 86.4942 128.24 86.448 128.434 86.5188C128.707 86.6184 129.01 86.4836 129.118 86.214C129.196 86.0226 129.375 85.8921 129.581 85.8779C129.871 85.8579 130.093 85.6115 130.082 85.3211C130.075 85.1149 130.186 84.9226 130.368 84.8259C130.625 84.6896 130.727 84.3744 130.6 84.1133C130.509 83.9279 130.532 83.7071 130.66 83.5446C130.839 83.3157 130.804 82.9861 130.581 82.7995C130.423 82.667 130.355 82.4558 130.405 82.2556C130.475 81.9737 130.309 81.6866 130.03 81.6067C129.832 81.55 129.683 81.385 129.647 81.1818C129.597 80.8955 129.329 80.7007 129.041 80.7414C128.837 80.7703 128.634 80.6799 128.519 80.5088C128.356 80.2677 128.032 80.1988 127.786 80.353C127.611 80.4625 127.389 80.4625 127.214 80.353C126.968 80.1988 126.644 80.2677 126.481 80.5088C126.366 80.68 126.163 80.7703 125.959 80.7414C125.671 80.7007 125.403 80.8955 125.353 81.1818C125.317 81.385 125.168 81.55 124.97 81.6067C124.691 81.6866 124.525 81.9737 124.595 82.2556C124.645 82.4558 124.577 82.667 124.419 82.7995C124.196 82.9861 124.161 83.3157 124.34 83.5446C124.468 83.7071 124.491 83.9279 124.4 84.1133C124.273 84.3744 124.375 84.6896 124.632 84.8259C124.814 84.9226 124.925 85.1149 124.918 85.3211C124.907 85.6115 125.129 85.8579 125.419 85.8779C125.625 85.8921 125.804 86.0226 125.882 86.214C125.99 86.4836 126.293 86.6184 126.566 86.5188C126.76 86.448 126.977 86.4942 127.125 86.6376Z" fill="#1B5E37"/>
</svg>
